Coordinates
version=1
nRows=12
nColumns=33
inDegrees=yes

Units are S.I. units (second, meters, Newtons, ...)
Angles are in degrees.

endheader
time	ground_thorax_rot_x	ground_thorax_rot_y	ground_thorax_rot_z	ground_thorax_tx	ground_thorax_ty	ground_thorax_tz	clav_prot_r	clav_elev_r	scapula_abduction_r	scapula_elevation_r	scapula_upward_rot_r	scapula_winging_r	shoulder_elv_r	plane_of_elev_r	axial_rot_r	elbow_flexion_r	pro_sup_r	wrist_flex_r	wrist_dev_r	clav_prot_l	clav_elev_l	scapula_abduction_l	scapula_elevation_l	scapula_upward_rot_l	scapula_winging_l	shoulder_elv_l	plane_of_elev_l	axial_rot_l	elbow_flexion_l	pro_sup_l	wrist_flex_l	wrist_dev_l
      3.32000000	     -0.21105975	     11.89822472	      1.23974087	     -0.18742836	      0.99625924	      0.01262073	    -15.10096140	    -18.23960140	    -20.22149630	    -11.36789384	      2.34573320	      8.48680876	     46.46052865	    -14.05405838	     26.93722016	     40.93851484	     -7.60867923	     -8.55942362	     21.10442545	      8.51771973	    -10.82532767	    -15.82577160	     -1.03649925	    -11.98606081	      2.28504408	     55.89920419	     -2.43054482	    -10.26956206	     45.95952130	      3.35562794	     24.80027477	     12.38487095
      3.33000000	     -0.16487246	     11.78563634	      1.18358924	     -0.18702084	      0.99644783	      0.01262154	    -14.87818861	    -18.44790503	    -19.81364621	    -11.56914981	      2.37455354	      8.59584218	     46.30454077	    -13.65242628	     26.88503237	     39.54030685	     -7.65528439	     -8.68363054	     21.19324646	      8.81558452	    -11.05098191	    -16.35949418	     -0.79884532	    -11.89684279	      2.43873852	     55.85789779	     -1.98950017	    -10.48177000	     44.33376986	      3.40257170	     24.90775336	     12.51399902
      3.34000000	     -0.13354366	     11.97571679	      0.98756815	     -0.18676343	      0.99551642	      0.01269391	    -14.87830152	    -17.96163441	    -19.66856399	    -11.22218000	      2.73682067	      8.22069352	     45.29139662	    -12.46369732	     25.95928140	     37.50865347	     -8.63694479	     -7.95836829	     21.93143724	      9.52795814	    -10.54307682	    -17.59898883	     -1.22555412	    -11.80938974	      3.17313786	     55.36071982	     -0.50919646	    -10.13230471	     42.18173175	      2.62479837	     25.30927842	     11.74032621
      3.35000000	     -0.13747204	     11.82124259	      1.07001522	     -0.18640489	      0.99573200	      0.01276535	    -14.61986925	    -18.22377514	    -19.21142583	    -11.46297010	      2.73699428	      8.36100804	     45.22881797	    -12.28884308	     26.23341107	     36.37635771	     -8.48867575	     -8.18032788	     21.87688314	      9.82865236	    -10.77504524	    -18.12597844	     -0.99934733	    -11.76105696	      3.32821777	     55.41002615	     -0.32462416	    -10.52247543	     40.82175188	      2.81103491	     25.33029163	     11.94032022
      3.36000000	     -0.07518583	     11.71127068	      1.05152597	     -0.18599239	      0.99602392	      0.01278715	    -14.40439880	    -18.46732793	    -18.81610384	    -11.69755178	      2.76281620	      8.49125083	     45.15751991	    -12.02397292	     26.30348191	     35.15104119	     -8.40821520	     -8.35135733	     21.84384308	     10.12325762	    -11.01785940	    -18.64302848	     -0.75935451	    -11.70220829	      3.47576926	     55.38171535	     -0.00414963	    -10.81672807	     39.38196784	      2.95932074	     25.35334600	     12.09785338
      3.37000000	     -0.05427073	     11.95801469	      0.83846069	     -0.18570946	      0.99547750	      0.01285160	    -14.44629300	    -18.20171695	    -18.74933505	    -11.54903870	      3.07039680	      8.27272429	     44.38972839	    -11.16215402	     25.57896769	     33.48187144	     -8.89535038	     -7.80486234	     22.15433014	     10.85263949	    -10.68455977	    -19.91590262	     -1.01456459	    -11.59036305	      4.18812661	     55.00236176	      1.20320827	    -10.67443546	     37.41988755	      2.60319509	     25.37466612	     11.37556366
      3.38000000	     -0.06553765	     11.81147101	      0.90301496	     -0.18534070	      0.99572786	      0.01295090	    -14.20589289	    -18.45557514	    -18.32372463	    -11.78300862	      3.07051740	      8.41037161	     44.32801178	    -11.01350936	     25.86600509	     32.46273668	     -8.72268374	     -8.02511585	     22.10205517	     11.13888469	    -10.88202718	    -20.41204185	     -0.82152570	    -11.54623482	      4.34949544	     55.05303540	      1.34761798	    -11.08175384	     36.21726560	      2.79606197	     25.39196183	     11.55172708
      3.39000000	     -0.00502159	     11.71867204	      0.86310743	     -0.18490853	      0.99601776	      0.01298994	    -14.00709062	    -18.68008120	    -17.95450614	    -12.00229787	      3.10302470	      8.52802327	     44.27580041	    -10.78173902	     25.96874168	     31.37548035	     -8.61280239	     -8.18668825	     22.06194008	     11.42099997	    -11.08473174	    -20.90353463	     -0.61808003	    -11.48766831	      4.50738702	     55.03365429	      1.62956478	    -11.43405783	     34.95400814	      2.95468624	     25.40816413	     11.67603349
      3.40000000	      0.04095418	     11.64409363	      0.77010937	     -0.18451718	      0.99623632	      0.01306718	    -13.82216125	    -18.85898756	    -17.60425084	    -12.18306019	      3.14962060	      8.61745850	     44.17681752	    -10.47929425	     25.99596891	     30.31964538	     -8.55322769	     -8.28572217	     22.05277738	     11.70220790	    -11.24817791	    -21.40011077	     -0.43784959	    -11.39978309	      4.68634754	     55.01988333	      1.96974758	    -11.77512486	     33.68790726	      3.08274633	     25.42071828	     11.73308629
      3.41000000	      0.09813271	     11.59099072	      0.66577718	     -0.18412158	      0.99642154	      0.01312935	    -13.65098972	    -18.99818722	    -17.27090377	    -12.33245479	      3.21531737	      8.67734529	     44.05710493	    -10.15530901	     25.98539997	     29.25156943	     -8.52755798	     -8.33875067	     22.06343864	     11.98859138	    -11.36791578	    -21.90302417	     -0.29954785	    -11.31920773	      4.88416785	     54.98218321	      2.34445250	    -12.14541064	     32.46317264	      3.18890070	     25.42715738	     11.71769182
      3.42000000	      0.03083336	     11.99315493	      0.61397535	     -0.18394354	      0.99557402	      0.01323137	    -13.82604611	    -18.50537405	    -17.40076995	    -11.99711154	      3.60561009	      8.30813106	     43.07043046	     -9.34199186	     25.29905582	     27.74212675	     -9.04408381	     -7.44708788	     22.37543975	     12.79088699	    -10.73490508	    -23.28771120	     -0.83645993	    -11.26254741	      5.79661672	     54.51854158	      3.61254341	    -12.52034759	     30.68130259	      2.86127682	     25.14143158	     10.24693482
      3.43000000	      0.03708937	     11.86818904	      0.58480631	     -0.18359179	      0.99587710	      0.01333736	    -13.63498442	    -18.74903616	    -17.04554453	    -12.23335702	      3.63226953	      8.44161130	     43.03987017	     -9.22273081	     25.58467240	     26.93428750	     -8.86937344	     -7.64840853	     22.29510239	     13.04898276	    -10.86952825	    -23.72959214	     -0.70274441	    -11.22643876	      5.96645609	     54.57739558	      3.73640700	    -12.93588925	     29.79462694	      3.07045221	     25.10857880	     10.36990528
